<?xml version="1.0" encoding="utf-8"?>
<!-- Generator: Adobe Illustrator 28.1.0, SVG Export Plug-In . SVG Version: 6.00 Build 0)  -->
<svg version="1.1" id="Layer_1" xmlns="http://www.w3.org/2000/svg" xmlns:xlink="http://www.w3.org/1999/xlink" x="0px" y="0px"
	 viewBox="0 0 543.17 436.71" style="enable-background:new 0 0 543.17 436.71;" xml:space="preserve">
<style type="text/css">
	.st0{fill:none;stroke:url(#SVGID_1_);stroke-width:22.1687;stroke-linecap:round;stroke-linejoin:round;stroke-miterlimit:10;}
	
		.st1{fill:url(#outline_00000121998216880316000340000010978795268018672063_);stroke:#10753B;stroke-width:3.203;stroke-linecap:round;stroke-linejoin:round;stroke-miterlimit:10;}
	.st2{fill:#1A6031;}
	
		.st3{fill:url(#SVGID_00000067219451560160965540000012525577293185875121_);stroke:#10753B;stroke-width:3.203;stroke-linecap:round;stroke-linejoin:round;stroke-miterlimit:10;}
</style>
<g>
	<linearGradient id="SVGID_1_" gradientUnits="userSpaceOnUse" x1="151.6545" y1="278.2892" x2="402.748" y2="278.2892">
		<stop  offset="4.025560e-07" style="stop-color:#1A6031"/>
		<stop  offset="0.165" style="stop-color:#1D6231"/>
		<stop  offset="0.2245" style="stop-color:#256633"/>
		<stop  offset="0.2669" style="stop-color:#336F36"/>
		<stop  offset="0.3011" style="stop-color:#447C3B"/>
		<stop  offset="0.3301" style="stop-color:#5B8E40"/>
		<stop  offset="0.3442" style="stop-color:#699A43"/>
		<stop  offset="1" style="stop-color:#79C064"/>
	</linearGradient>
	<path class="st0" d="M337.54,231.73c45.4,22.54,66.86,79.43,46.27,128.87c-20.45,49.1-71.5,73.23-119.95,62.53
		c-108.17-23.89-130.75-175.21-62-254.32c28.83-33.17,70.57-42.57,111.31-35.77"/>
	
		<linearGradient id="outline_00000106839992967009609570000013748251975714142880_" gradientUnits="userSpaceOnUse" x1="169.7622" y1="106.5291" x2="541.5667" y2="106.5291">
		<stop  offset="0.0302" style="stop-color:#146B36"/>
		<stop  offset="0.1364" style="stop-color:#156C37"/>
		<stop  offset="0.1746" style="stop-color:#187139"/>
		<stop  offset="0.1935" style="stop-color:#1C763B"/>
		<stop  offset="0.296" style="stop-color:#2D7F3F"/>
		<stop  offset="0.4784" style="stop-color:#51994E"/>
		<stop  offset="0.6625" style="stop-color:#7AC368"/>
		<stop  offset="1" style="stop-color:#699A43"/>
	</linearGradient>
	
		<path id="outline" style="fill:url(#outline_00000106839992967009609570000013748251975714142880_);stroke:#10753B;stroke-width:3.203;stroke-linecap:round;stroke-linejoin:round;stroke-miterlimit:10;" d="
		M169.77,211.46c0,0-5.93-245.78,371.8-205.37c0,0-68.81,110.64-193.61,132.36s-176.05,73-176.05,73"/>
	<g>
		<path class="st2" d="M161.85,216.49c3.04-8.35,7.83-15.98,12.75-23.3c37.53-52.75,100.07-90.42,157.76-117.52
			C398.62,44.8,469.3,23.55,540.29,6.85c-74.3,20.96-147.72,46.89-215.66,83.81c-27.52,15.1-54.52,32.27-78.8,52.08
			c-25.18,20.94-51.63,46.94-64.79,77.11c0,0-0.49,1.32-0.49,1.32c-0.09,0.22-0.13,0.39-0.2,0.59l-0.1,0.29
			c-1.25,5.19-6.51,8.38-11.7,7.07C163.05,227.77,159.9,221.8,161.85,216.49L161.85,216.49z"/>
	</g>
	
		<linearGradient id="SVGID_00000078007047978437359040000015925135325167243961_" gradientUnits="userSpaceOnUse" x1="1.6015" y1="165.4926" x2="166.0901" y2="165.4926">
		<stop  offset="7.537842e-03" style="stop-color:#699A43"/>
		<stop  offset="0.2764" style="stop-color:#7AC368"/>
		<stop  offset="0.8635" style="stop-color:#146B36"/>
	</linearGradient>
	
		<path style="fill:url(#SVGID_00000078007047978437359040000015925135325167243961_);stroke:#10753B;stroke-width:3.203;stroke-linecap:round;stroke-linejoin:round;stroke-miterlimit:10;" d="
		M164.75,214.24c0,0-172.26,67.7-162.77-110.13c0,0,159.72,21.85,164.11,108.75"/>
	<g>
		<path class="st2" d="M169.53,216.45c-0.57,0.18-1.44,0.32-2.03,0.41c-1.74,0.24-3.61,0.36-5.33,0.28c0,0-3.44-0.15-3.44-0.15
			l-3.36-0.45c-4.37-0.59-8.81-1.71-12.99-3.08c-1.82-0.6-4.53-1.37-6.26-2.14c-3.62-1.5-8.66-3.42-12.04-5.26
			c-25.32-12.39-47.88-30.05-68.92-48.52c-2.97-2.7-11.47-10.39-14.39-13.05c-3.15-3.07-10.66-10.5-13.84-13.61
			c-6.58-6.22-20.46-21.35-26.84-28.01c3.77,3.76,19.47,19.53,22.9,22.8c2.87,2.65,11.19,10.39,14.21,13.18c0,0,4.73,4.39,4.73,4.39
			c5.62,4.77,13.98,12.06,19.65,16.73c21.67,17.17,44.68,33.89,70.34,44.32c0.96,0.35,6.55,2.46,7.42,2.78
			c1.06,0.32,3.48,0.99,4.54,1.31c3.91,1.16,8.18,2.1,12.2,2.53c0,0,3.06,0.32,3.06,0.32c1.95,0.04,4.76,0.08,6.69-0.18
			c0,0,0.67-0.12,0.67-0.12l0.66-0.12l0.17-0.03l0.1-0.03C171.55,209.21,173.74,215.06,169.53,216.45L169.53,216.45z"/>
	</g>
</g>
</svg>
